# xmcd
# Copyright (C) 1995-1998 Ti Kan
#
# Track frame offsets:
#       150
#       9812
#       25761
#       46812
#       64099
#       75277
#       101418
#       120904
#       136377
#       159162
#       175575
#       193870
#
# Disc length: 2974 seconds
#
# Revision: 0
# Processed by: cddbd v1.5.2PL0 Copyright (c) Steve Scherf et al.
# Submitted via: CD-Import v1.0
#
DISCID=7c0b9c0c
DTITLE=Jamie T. - Panic Prevention
DYEAR=2007
DGENRE=
TTITLE0=Brand New Bass Guitar
TTITLE1=Salvador
TTITLE2=Calm Down Dearest
TTITLE3=So Lonely Was The Ballad
TTITLE4=Back In The Game
TTITLE5=Operation
TTITLE6=Sheila
TTITLE7=Pacemaker
TTITLE8=Dry Off Your Cheeks
TTITLE9=Ike and Tina
TTITLE10=If You Got The Money
TTITLE11=Alicia Quays
EXTD=
EXTT0=
EXTT1=
EXTT2=
EXTT3=
EXTT4=
EXTT5=
EXTT6=
EXTT7=
EXTT8=
EXTT9=
EXTT10=
EXTT11=
PLAYORDER=
